# AST/ASF file generated using VICON BodyLanguage
# -----------------------------------------------
:version 1.10
:name VICON
:units
  mass 1.0
  length 0.45
  angle deg
:documentation
   .ast/.asf automatically generated from VICON data using
   VICON BodyBuilder and BodyLanguage model FoxedUp or BRILLIANT.MOD
:root
   order TX TY TZ RX RY RZ
   axis XYZ
   position 0 0 0  
   orientation 0 0 0 
:bonedata
  begin
     id 1 
     name lhipjoint
     direction 0.521689 -0.742065 0.420928 
     length 2.47002 
     axis 0 0 0  XYZ
  end
  begin
     id 2 
     name lfemur
     direction 0.34202 -0.939693 0  
     length 7.24654  
     axis 0 0 20  XYZ
    dof rx ry rz
    limits (-160.0 20.0)
           (-70.0 70.0)
           (-60.0 70.0)
  end
  begin
     id 3 
     name ltibia
     direction 0.34202 -0.939693 0   
     length 8.04849   
     axis 0 0 20   XYZ
    dof rx
    limits (-10.0 170.0)
  end
  begin
     id 4 
     name lfoot
     direction 0.0745411 -0.2048 0.975961   
     length 1.72367   
     axis -90 7.62852e-016 20   XYZ
    dof rx rz
    limits (-45.0 90.0)
           (-70.0 20.0)
  end
  begin
     id 5 
     name ltoes
     direction 1.53556e-011 -4.21901e-011 1   
     length 0.87311   
     axis -90 7.62852e-016 20   XYZ
    dof rx
    limits (-90.0 20.0)
  end
  begin
     id 6 
     name rhipjoint
     direction -0.52849 -0.738415 0.418857   
     length 2.48223  
     axis 0 0 0  XYZ 
  end
  begin
     id 7 
     name rfemur
     direction -0.34202 -0.939693 0   
     length 7.15571   
     axis 0 0 -20   XYZ
    dof rx ry rz
    limits (-160.0 20.0)
           (-70.0 70.0)
           (-70.0 60.0)
  end
  begin
     id 8 
     name rtibia
     direction -0.34202 -0.939693 0   
     length 7.81659   
     axis 0 0 -20   XYZ
    dof rx
    limits (-10.0 170.0)
 end
 begin
     id 9 
     name rfoot
     direction -0.0917348 -0.252039 0.963359   
     length 1.84382  
     axis -90 -7.62852e-016 -20   XYZ
    dof rx rz
    limits (-45.0 90.0)
           (-20.0 70.0)
  end
  begin
     id 10 
     name rtoes
     direction -1.53551e-011 -4.21879e-011 1   
     length 0.927771   
     axis -90 -7.62852e-016 -20   XYZ
    dof rx
    limits (-90.0 20.0)
  end
  begin
     id 11 
     name lowerback
     direction 0.00583058 0.999822 0.0179296   
     length 2.1429   
     axis 0 0 0   XYZ
    dof rx ry rz
    limits (-20.0 45.0)
           (-30.0 30.0)
           (-30.0 30.0)
  end
  begin
     id 12 
     name upperback
     direction -0.0137999 0.999752 -0.0175071   
     length 2.14252   
     axis 0 0 0   XYZ
    dof rx ry rz
    limits (-20.0 45.0)
           (-30.0 30.0)
           (-30.0 30.0)
  end
  begin
     id 13 
     name thorax
     direction -0.0158036 0.99955 -0.0254909   
     length 2.1383   
     axis 0 0 0   XYZ
    dof rx ry rz
    limits (-20.0 45.0)
           (-30.0 30.0)
           (-30.0 30.0)
  end
  begin
     id 14 
     name lowerneck
     direction -0.0101179 0.999403 -0.0330262   
     length 1.65808   
     axis 0 0 0   XYZ
    dof rx ry rz
    limits (-20.0 45.0)
           (-30.0 30.0)
           (-30.0 30.0)
  end
  begin
     id 15 
     name upperneck
     direction 0.0497734 0.995978 -0.074501   
     length 1.5897   
     axis 0 0 0   XYZ
    dof rx ry rz
    limits (-20.0 45.0)
           (-30.0 30.0)
           (-30.0 30.0)
  end
  begin
     id 16
     name head
     direction 0.0189524 0.999519 -0.0245438  
     length 1.74024  
     axis 0 0 0   XYZ
    dof rx ry rz
    limits (-20.0 45.0)
           (-30.0 30.0)
           (-30.0 30.0)
  end
  begin
     id 17 
     name lclavicle
     direction 0.945604 0.324422 0.0241537  
     length 3.59089  
     axis 0 0 0   XYZ
    dof ry rz
    limits (-20.0 10.0)
           (0.0 20.0)
  end
  begin
     id 18 
     name lhumerus
     direction 1 -4.48964e-011 -2.63524e-027   
     length 5.2391   
     axis 180 -30 -90   XYZ
    dof rx ry rz
    limits (-60.0 90.0)
           (-90.0 90.0)
           (-90.0 90.0)
  end
  begin
     id 19
     name lradius
     direction 1 -4.48969e-011 3.86978e-028   
     length 3.31467   
     axis 180 -30 -90   XYZ
    dof rx
    limits (-10.0 170.0)
  end
  begin
     id 20
     name lwrist
     direction 1 -4.48963e-011 7.20928e-028   
     length 1.65734   
     axis -5.52449e-016 90 90   XYZ
    dof ry
    limits (-180.0 0.0)
 end
  begin
     id 21 
     name lhand
     direction 1 -4.48964e-011 1.44186e-027   
     length 0.9659   
     axis -9.20027e-016 90 90   XYZ
    dof rx rz
    limits (-90.0 90.0)
           (-45.0 45.0)
  end
  begin
     id 22 
     name lfingers
     direction 1 -4.48965e-011 2.88371e-027   
     length 0.778733   
     axis -1.84005e-015 90 90   XYZ
    dof rx
    limits (0.0 90.0)
  end
  begin
     id 23
     name lthumb
     direction 0.707107 -6.34931e-011 0.707107   
     length 1.11811   
     axis -90 45 2.85299e-015   XYZ
    dof rx rz
    limits (-45.0 45.0)
           (-45.0 45.0)
  end
  begin
     id 24 
     name rclavicle
     direction -0.923762 0.370785 0.0958234   
     length 3.54196  
     axis 0 0 0   XYZ 
    dof ry rz
    limits (-10.0 20.0)
           (-20.0 0.0)
  end
  begin
     id 25 
     name rhumerus
     direction -1 -4.48966e-011 1.18702e-017  
     length 5.30252   
     axis 180 30 90   XYZ
    dof rx ry rz
    limits (-90.0 60.0)
           (-90.0 90.0)
           (-90.0 90.0)
  end
  begin
     id 26 
     name rradius
     direction -1 -4.48966e-011 4.46736e-027   
     length 3.67875   
     axis 180 30 90   XYZ
    dof rx
    limits (-10.0 170.0)
  end
  begin
     id 27 
     name rwrist
     direction -1 -4.48966e-011 7.20928e-028   
     length 1.83937   
     axis -5.52449e-016 -90 -90   XYZ
    dof ry
    limits (-180.0 0.0)
  end
  begin
     id 28
     name rhand
     direction -1 -4.48973e-011 1.44186e-027   
     length 0.594811   
     axis -9.20027e-016 -90 -90   XYZ
    dof rx rz
    limits (-90.0 90.0)
           (-45.0 45.0)
  end
  begin
     id 29
     name rfingers
     direction -1 -4.48963e-011 2.88371e-027   
     length 0.479552   
     axis -1.84005e-015 -90 -90   XYZ
    dof rx
    limits (0.0 90.0)
  end
  begin
     id 30
     name rthumb
     direction -0.707107 -6.34932e-011 0.707107   
     length 0.688544   
     axis -90 -45 -2.85299e-015   XYZ
    dof rx rz
    limits (-45.0 45.0)
           (-45.0 45.0)
  end
:hierarchy
  begin
    root lhipjoint rhipjoint lowerback
    lhipjoint lfemur
    lfemur ltibia
    ltibia lfoot
    lfoot ltoes
    rhipjoint rfemur
    rfemur rtibia
    rtibia rfoot
    rfoot rtoes
    lowerback upperback
    upperback thorax
    thorax lowerneck lclavicle rclavicle
    lowerneck upperneck
    upperneck head
    lclavicle lhumerus
    lhumerus lradius
    lradius lwrist
    lwrist lhand lthumb
    lhand lfingers
    rclavicle rhumerus
    rhumerus rradius
    rradius rwrist
    rwrist rhand rthumb
    rhand rfingers
  end

#!OML:ASF E:\acrobat2\Project_11_07_03\Capture day 1\Session 1\Acrobat.ASF
:FULLY-SPECIFIED
:DEGREES
303
root 10.8081 19.6278 -3.79846 10.6946 10.0667 -4.37142
lowerback 1.222 -1.22872 7.53454
upperback 2.27018 -1.64768 2.39028
thorax 1.52231 -0.720376 -1.75037
lowerneck 3.0518 -2.0954 -1.62437
upperneck -9.3188 -2.32332 6.6843
head -3.47204 -1.36145 2.60091
rclavicle 2.68359e-015 1.47101e-014
rhumerus -37.5002 -13.2513 -74.1741
rradius 21.9017
rwrist 11.8876
rhand 0.855346 -48.9189
rfingers 7.12502
rthumb 26.4094 -77.0994
lclavicle 2.68359e-015 1.47101e-014
lhumerus -26.3689 4.17602 77.1556
lradius 38.0341
lwrist 176.173
lhand -23.9492 17.0833
lfingers 7.12502
lthumb 2.52645 47.0481
rfemur -39.6001 -4.47033 27.079
rtibia 46.5396
rfoot -33.2075 -0.648639
rtoes -4.65533
lfemur -13.0859 -2.37974 -4.86695
ltibia 76.9556
lfoot 16.1765 -3.28836
ltoes 11.444
304
root 10.7943 19.6583 -3.61535 10.575 9.61141 -4.70301
lowerback 1.38819 -1.02808 7.79633
upperback 2.23642 -1.36216 2.50519
thorax 1.4166 -0.579185 -1.77456
lowerneck 3.20488 -2.20215 -1.47266
upperneck -9.37327 -2.4789 6.41135
head -3.51539 -1.43638 2.49054
rclavicle -9.24349e-015 4.37326e-015
rhumerus -37.0277 -12.4693 -74.5321
rradius 22.2229
rwrist 11.6595
rhand 1.09658 -49.0418
rfingers 7.12502
rthumb 26.6403 -77.1873
lclavicle -9.24349e-015 4.37326e-015
lhumerus -26.9755 4.29283 76.6918
lradius 37.9105
lwrist 175.671
lhand -24.1005 17.1749
lfingers 7.12502
lthumb 2.38029 47.1413
rfemur -38.3822 -4.04752 27.4693
rtibia 45.8359
rfoot -33.4723 0.476452
rtoes -1.2748
lfemur -15.0531 -1.7799 -4.42436
ltibia 79.9291
lfoot 15.369 -5.1712
ltoes 10.4419
305
root 10.7782 19.6879 -3.43055 10.5422 9.09907 -5.00782
lowerback 1.3839 -0.769734 8.01619
upperback 2.25775 -1.02094 2.5773
thorax 1.47016 -0.404285 -1.82387
lowerneck 3.27198 -2.24287 -1.50677
upperneck -9.34692 -2.52985 6.49176
head -3.51611 -1.46417 2.52698
rclavicle -4.57205e-015 4.77083e-014
rhumerus -36.3701 -11.759 -74.933
rradius 22.4029
rwrist 11.5612
rhand 1.45069 -49.436
rfingers 7.12502
rthumb 26.9791 -77.5296
lclavicle -4.57205e-015 4.77083e-014
lhumerus -27.6351 4.36547 76.1432
lradius 37.843
lwrist 175.065
lhand -24.2292 17.1687
lfingers 7.12502
lthumb 2.25601 47.1365
rfemur -37.3398 -3.54522 27.8937
rtibia 45.1714
rfoot -33.6612 0.0538728
rtoes -3.3489
lfemur -17.1418 -1.1053 -4.02975
ltibia 82.718
lfoot 14.5361 -6.81255
ltoes 9.38638
306
root 10.7674 19.7185 -3.23956 10.4874 8.64179 -5.2482
lowerback 1.33383 -0.549704 8.24642
upperback 2.28511 -0.735941 2.61739
thorax 1.55185 -0.255769 -1.91145
lowerneck 2.98952 -2.2799 -1.33034
upperneck -9.01983 -2.59987 6.31095
head -3.34727 -1.48944 2.41916
rclavicle 3.69739e-014 3.1408e-014
rhumerus -35.6821 -11.0286 -75.3514
rradius 22.6404
rwrist 11.49
rhand 1.80728 -49.8674
rfingers 7.12502
rthumb 27.3203 -77.9078
lclavicle 3.69739e-014 3.1408e-014
lhumerus -28.3449 4.4058 75.5251
lradius 37.7813
lwrist 174.779
lhand -24.3365 17.115
lfingers 7.12502
lthumb 2.15237 47.0839
rfemur -36.2192 -3.26175 28.272
rtibia 44.5259
rfoot -33.9043 -0.781033
rtoes -7.33128
lfemur -19.1793 -0.517674 -3.7812
ltibia 85.2905
lfoot 13.6957 -8.04764
ltoes 8.92907
307
root 10.7624 19.7529 -3.04572 10.4041 8.22851 -5.49887
lowerback 1.33781 -0.374706 8.54419
upperback 2.2662 -0.501573 2.66271
thorax 1.55193 -0.135297 -2.0296
lowerneck 2.68526 -2.48877 -1.8961
upperneck -8.62453 -2.90212 6.71318
head -3.13041 -1.62594 2.64898
rclavicle -5.96354e-016 1.03368e-014
rhumerus -35.2315 -10.2343 -75.7209
rradius 23.2288
rwrist 11.3325
rhand 1.57824 -50.1972
rfingers 7.12502
rthumb 27.1012 -78.2719
lclavicle -5.96354e-016 1.03368e-014
lhumerus -29.0741 4.72626 74.8205
lradius 37.6089
lwrist 174.669
lhand -24.631 17.0942
lfingers 7.12502
lthumb 1.86795 47.0658
rfemur -35.0283 -3.05899 28.5856
rtibia 43.8816
rfoot -34.2389 -0.42578
rtoes -7.42833
lfemur -21.1825 0.0432254 -3.60736
ltibia 87.6716
lfoot 12.8993 -8.9487
ltoes 7.99801
308
root 10.7571 19.7904 -2.85109 10.3639 7.73596 -5.75176
lowerback 1.27219 -0.194302 8.85196
upperback 2.29168 -0.271342 2.68502
thorax 1.63905 -0.0122828 -2.17682
lowerneck 2.73511 -2.41858 -1.78617
upperneck -8.70977 -2.82236 6.40186
head -3.17635 -1.58048 2.52449
rclavicle -1.39149e-015 -5.96354e-015
rhumerus -34.6136 -9.4855 -76.119
rradius 23.592
rwrist 11.3101
rhand 0.310269 -49.8786
rfingers 7.12502
rthumb 25.8875 -78.1363
lclavicle -1.39149e-015 -5.96354e-015
lhumerus -29.8505 5.41029 73.9447
lradius 37.4801
lwrist 174.529
lhand -25.0006 16.7892
lfingers 7.12502
lthumb 1.51099 46.7635
rfemur -33.8693 -2.79606 28.9045
rtibia 43.2502
rfoot -34.5579 -0.0802335
rtoes -7.89667
lfemur -23.2757 0.740792 -3.4896
ltibia 89.8749
lfoot 11.5791 -10.208
ltoes 4.82488
309
root 10.7515 19.8185 -2.65637 10.3143 7.13874 -5.99691
lowerback 1.2035 -0.0064224 9.15314
upperback 2.34246 -0.0338562 2.673
thorax 1.75749 0.116622 -2.35481
lowerneck 2.65819 -2.34812 -1.40231
upperneck -8.54795 -2.74217 6.02772
head -3.11626 -1.53648 2.31965
rclavicle -2.54444e-014 -4.57205e-014
rhumerus -33.6148 -8.74695 -76.5663
rradius 23.3545
rwrist 11.4163
rhand -0.782672 -49.2925
rfingers 7.12502
rthumb 24.8405 -77.6988
lclavicle -2.54444e-014 -4.57205e-014
lhumerus -30.7801 5.92774 73.0115
lradius 37.4475
lwrist 174.482
lhand -25.0521 16.507
lfingers 7.12502
lthumb 1.46123 46.4817
rfemur -32.6555 -2.48447 29.2078
rtibia 42.6247
rfoot -34.8086 0.389918
rtoes -7.66262
lfemur -25.3588 1.54365 -3.42455
ltibia 91.9228
lfoot 10.2813 -11.35
ltoes 2.34072
310
root 10.7481 19.8432 -2.46407 10.2033 6.56428 -6.17877
lowerback 1.36704 0.193912 9.42446
upperback 2.26778 0.25846 2.62243
thorax 1.62275 0.259446 -2.55705
lowerneck 2.76458 -2.46246 -1.97961
upperneck -8.50841 -2.90374 6.3858
head -3.10712 -1.61208 2.55173
rclavicle 1.98785e-014 -3.26007e-014
rhumerus -32.8582 -8.05361 -76.9081
rradius 23.2599
rwrist 11.4696
rhand -1.14936 -49.0023
rfingers 7.12502
rthumb 24.489 -77.4566
lclavicle 1.98785e-014 -3.26007e-014
lhumerus -31.7836 6.22683 72.066
lradius 37.1418
lwrist 174.281
lhand -24.9034 16.6469
lfingers 7.12502
lthumb 1.60483 46.6206
rfemur -31.3832 -2.23623 29.4182
rtibia 42.0279
rfoot -35.0613 1.02395
rtoes -6.40643
lfemur -27.4162 2.25101 -3.5116
ltibia 93.7867
lfoot 8.95312 -12.4592
ltoes 2.54032
311
root 10.7448 19.8673 -2.27308 10.0404 6.10232 -6.38494
lowerback 1.60307 0.354476 9.67454
upperback 2.19243 0.507847 2.61908
thorax 1.4437 0.377838 -2.70054
lowerneck 3.00678 -2.44558 -1.8176
upperneck -8.73058 -2.8824 6.13562
head -3.23408 -1.60351 2.44945
rclavicle -9.54166e-015 -7.95139e-015
rhumerus -32.3478 -7.22693 -77.2293
rradius 23.6169
rwrist 11.3616
rhand -1.53157 -48.9073
rfingers 7.12502
rthumb 24.1226 -77.4108
lclavicle -9.54166e-015 -7.95139e-015
lhumerus -32.6936 6.89631 70.9688
lradius 36.5005
lwrist 173.974
lhand -24.8157 16.8544
lfingers 7.12502
lthumb 1.68955 46.8275
rfemur -30.0914 -2.12254 29.6965
rtibia 41.4733
rfoot -35.4175 0.918602
rtoes -8.08682
lfemur -29.5143 2.81759 -3.61035
ltibia 95.4796
lfoot 7.70465 -13.4802
ltoes 3.46958
312
root 10.7406 19.8815 -2.08111 10.0174 5.56167 -6.71058
lowerback 1.60782 0.496897 9.92449
upperback 2.16732 0.699731 2.70088
thorax 1.44141 0.475161 -2.75368
lowerneck 2.91432 -2.35353 -1.57198
upperneck -8.60125 -2.7717 5.85117
head -3.18151 -1.54332 2.29951
rclavicle -1.59028e-014 -5.00937e-014
rhumerus -31.8134 -6.21553 -77.6007
rradius 24.2545
rwrist 11.2307
rhand -1.90519 -48.9875
rfingers 7.12502
rthumb 23.7643 -77.538
lclavicle -1.59028e-014 -5.00937e-014
lhumerus -33.6428 7.91405 69.7548
lradius 35.8535
lwrist 173.808
lhand -24.7793 16.8643
lfingers 7.12502
lthumb 1.72476 46.8371
rfemur -29.0091 -1.87047 30.0715
rtibia 40.9138
rfoot -35.6059 0.816558
rtoes -9.86199
lfemur -31.7757 3.59294 -3.58838
ltibia 97.0618
lfoot 6.55589 -14.5555
ltoes 3.7324
313
root 10.737 19.8862 -1.89145 10.1082 4.98546 -7.02056
lowerback 1.55159 0.666643 10.1841
upperback 2.08808 0.924483 2.74767
thorax 1.42281 0.586766 -2.84785
lowerneck 2.78145 -2.26896 -1.76425
upperneck -8.35414 -2.67172 5.94719
head -3.07356 -1.48631 2.35373
rclavicle 4.33351e-014 4.49253e-014
rhumerus -31.2955 -5.36154 -77.9403
rradius 24.8687
rwrist 11.1386
rhand -2.14428 -49.0573
rfingers 7.12502
rthumb 23.535 -77.6374
lclavicle 4.33351e-014 4.49253e-014
lhumerus -34.7647 8.52345 68.5911
lradius 35.4712
lwrist 173.81
lhand -24.6167 16.831
lfingers 7.12502
lthumb 1.88177 46.8025
rfemur -28.0736 -1.58517 30.4076
rtibia 40.3064
rfoot -35.6317 1.17005
rtoes -9.44249
lfemur -34.2041 4.52732 -3.63432
ltibia 98.4943
lfoot 5.45786 -15.7016
ltoes 2.97203
314
root 10.7298 19.8949 -1.69682 9.97686 4.53522 -7.27402
lowerback 1.65375 0.815293 10.4054
upperback 2.09286 1.13587 2.76885
thorax 1.40226 0.693855 -2.94867
lowerneck 2.84667 -2.20217 -1.04678
upperneck -8.47825 -2.59247 5.21432
head -3.14318 -1.44565 1.98139
rclavicle 1.74931e-014 7.11649e-014
rhumerus -30.5681 -4.56905 -78.2511
rradius 25.1447
rwrist 10.8586
rhand -2.57201 -48.8996
rfingers 7.12502
rthumb 23.1247 -77.5318
lclavicle 1.74931e-014 7.11649e-014
lhumerus -35.8205 9.01212 67.4069
lradius 35.0538
lwrist 173.636
lhand -24.3638 16.8187
lfingers 7.12502
lthumb 2.126 46.7878
rfemur -26.7326 -1.35306 30.6953
rtibia 39.6425
rfoot -35.8308 1.93696
rtoes -7.29522
lfemur -36.4388 5.25729 -3.75971
ltibia 99.6354
lfoot 4.18346 -16.6934
ltoes 0.594842
315
root 10.7217 19.9187 -1.48848 9.73887 4.04635 -7.47455
lowerback 1.78194 0.986241 10.5492
upperback 2.12709 1.37797 2.76663
thorax 1.40161 0.817104 -3.03133
lowerneck 2.73 -2.35366 -1.41743
upperneck -8.4061 -2.82159 5.21628
head -3.08388 -1.54584 2.05084
rclavicle -1.23246e-014 -1.74931e-014
rhumerus -29.8988 -3.86824 -78.5099
rradius 25.4049
rwrist 10.5708
rhand -2.96431 -48.769
rfingers 7.12502
rthumb 22.7482 -77.4479
lclavicle -1.23246e-014 -1.74931e-014
lhumerus -36.8208 9.85649 66.0215
lradius 34.4245
lwrist 172.982
lhand -24.3557 16.4895
lfingers 7.12502
lthumb 2.13382 46.4585
rfemur -25.1938 -1.06797 30.8795
rtibia 38.9504
rfoot -36.1414 3.04109
rtoes -4.81726
lfemur -38.3978 5.86081 -4.0259
ltibia 100.399
lfoot 2.86593 -17.432
ltoes -1.375
316
root 10.7173 19.9394 -1.27951 9.61837 3.51385 -7.60618
lowerback 1.85173 1.16718 10.61
upperback 2.06777 1.63275 2.75425
thorax 1.33604 0.939622 -3.07949
lowerneck 2.77466 -2.42131 -1.22601
upperneck -8.35634 -2.93612 4.80457
head -3.07675 -1.59419 1.88317
rclavicle -2.48481e-014 -2.98177e-014
rhumerus -29.4454 -3.47049 -78.6375
rradius 25.8099
rwrist 10.6579
rhand -3.08955 -48.6496
rfingers 7.12502
rthumb 22.628 -77.3432
lclavicle -2.48481e-014 -2.98177e-014
lhumerus -37.9949 10.7985 64.4866
lradius 33.8118
lwrist 172.199
lhand -24.1886 16.4119
lfingers 7.12502
lthumb 2.29525 46.3793
rfemur -23.8852 -0.851541 30.9823
rtibia 38.2551
rfoot -36.4174 3.4843
rtoes -4.87848
lfemur -40.4307 6.43445 -4.48462
ltibia 100.925
lfoot 1.87779 -18.0341
ltoes -1.65476
317
root 10.714 19.9424 -1.07526 9.5615 3.00248 -7.79998
lowerback 1.90524 1.34632 10.7562
upperback 1.97185 1.88686 2.75171
thorax 1.24484 1.06037 -3.16496
lowerneck 2.39935 -2.30774 -0.9987
upperneck -7.68667 -2.80975 4.58371
head -2.78757 -1.52009 1.74235
rclavicle -4.07509e-015 2.06736e-014
rhumerus -28.9156 -3.00079 -78.7853
rradius 26.1411
rwrist 10.536
rhand -3.12202 -48.7295
rfingers 7.12502
rthumb 22.5969 -77.4269
lclavicle -4.07509e-015 2.06736e-014
lhumerus -39.3404 11.4797 62.9089
lradius 33.3214
lwrist 171.702
lhand -23.4204 17.6201
lfingers 7.12502
lthumb 3.03715 47.5782
rfemur -22.6569 -0.611634 31.1735
rtibia 37.5873
rfoot -36.6312 3.29463
rtoes -5.91164
lfemur -42.6428 7.03282 -4.8888
ltibia 101.34
lfoot 1.30209 -18.7315
ltoes -0.835634
